<?xml version="1.0" standalone="no"?>
<!DOCTYPE svg PUBLIC "-//W3C//DTD SVG 20010904//EN"
 "http://www.w3.org/TR/2001/REC-SVG-20010904/DTD/svg10.dtd">
<svg version="1.0" xmlns="http://www.w3.org/2000/svg"
 width="981.000000pt" height="757.000000pt" viewBox="0 0 981.000000 757.000000"
 preserveAspectRatio="xMidYMid meet">

<g transform="translate(0.000000,757.000000) scale(0.100000,-0.100000)"
fill="#000000" stroke="none">
<path d="M2735 6760 c-182 -39 -462 -251 -547 -415 -46 -89 -60 -163 -47 -247
19 -117 72 -179 212 -248 68 -33 98 -54 115 -80 23 -34 23 -40 10 -114 -6 -34
21 -28 38 8 15 30 16 41 5 75 -19 64 -58 101 -151 144 -162 76 -205 132 -205
273 0 73 3 87 38 158 81 163 331 364 514 411 122 32 230 12 308 -57 57 -50 84
-106 85 -171 0 -67 -29 -120 -85 -153 -44 -26 -49 -26 -151 -19 -88 6 -108 4
-129 -9 -14 -9 -25 -23 -25 -31 0 -18 26 -20 36 -4 5 8 36 10 104 6 111 -7
156 2 201 40 42 36 79 116 79 173 0 92 -76 197 -173 240 -55 24 -168 34 -232
20z"/>
<path d="M3160 6173 c-51 -7 -70 -14 -70 -24 0 -8 16 -9 52 -5 29 4 55 9 57
12 10 9 -15 20 -39 17z"/>
<path d="M2970 6044 c0 -107 1 -116 18 -109 9 5 28 8 42 9 20 1 26 -4 28 -27
4 -36 -11 -54 -59 -69 -22 -6 -39 -17 -39 -25 0 -26 88 8 117 46 32 41 2 101
-50 101 -27 0 -27 1 -27 73 0 78 -7 117 -21 117 -5 0 -9 -52 -9 -116z"/>
<path d="M2801 6119 c-46 -9 -58 -15 -48 -25 11 -11 118 7 114 19 -5 15 -15
16 -66 6z"/>
<path d="M4605 5940 c-195 -36 -361 -148 -475 -320 -75 -114 -105 -211 -105
-340 0 -103 11 -197 25 -220 17 -27 18 -5 3 65 -50 235 56 514 251 662 215
163 480 188 721 69 335 -165 471 -573 304 -911 -160 -325 -568 -467 -894 -311
-80 38 -183 113 -220 159 -17 22 -25 27 -25 16 0 -25 111 -123 186 -165 116
-65 202 -87 339 -88 99 -1 133 3 195 23 128 39 206 86 301 181 72 71 93 100
132 180 102 209 102 411 0 620 -38 79 -60 109 -132 181 -133 133 -273 195
-461 204 -52 2 -117 0 -145 -5z"/>
<path d="M3604 5473 c-142 -47 -261 -87 -264 -90 -2 -2 22 -55 53 -119 31 -63
57 -117 57 -120 0 -3 -30 -4 -67 -2 l-68 3 -100 132 c-55 72 -103 135 -107
138 -9 9 -219 -70 -277 -103 -70 -41 -136 -115 -178 -199 -38 -76 -38 -78 -38
-197 l0 -121 188 -500 c104 -275 195 -507 203 -517 9 -9 26 -19 40 -22 l24 -6
-37 -57 c-40 -64 -99 -187 -132 -279 l-23 -61 -62 13 c-197 41 -370 137 -507
281 -46 49 -82 98 -101 140 -27 57 -30 72 -25 128 8 110 72 190 173 221 88 26
159 11 216 -46 65 -65 49 -134 -39 -164 -85 -29 -160 -15 -151 30 2 14 10 18
31 16 22 -3 27 1 27 17 0 23 -36 37 -69 26 -48 -15 -51 -88 -4 -125 19 -15 41
-20 83 -20 186 0 271 141 153 255 -101 98 -297 80 -396 -36 -71 -83 -89 -217
-41 -318 54 -118 197 -256 356 -345 70 -39 261 -106 302 -106 15 0 29 -6 32
-13 2 -7 -4 -51 -16 -98 -53 -221 -49 -501 10 -735 37 -148 69 -233 137 -364
130 -254 328 -471 565 -620 l87 -55 3 -220 c3 -203 5 -223 25 -260 24 -46 74
-95 118 -118 27 -15 -81 -16 -1277 -17 -865 0 -1308 -3 -1308 -10 0 -7 1240
-10 3700 -10 2460 0 3700 3 3700 10 0 7 -517 10 -1532 10 l-1531 0 40 29 c95
69 113 125 113 362 l0 179 53 26 c215 108 419 287 574 501 63 87 180 311 203
388 7 22 16 44 20 48 4 5 42 15 84 22 187 33 296 138 296 288 0 132 -96 210
-237 192 -29 -3 -53 -3 -53 2 0 4 20 156 45 337 25 181 44 331 42 332 -2 2
-17 6 -33 10 l-29 6 -24 -179 c-34 -259 -30 -251 -61 -126 -38 148 -53 191
-115 320 -85 178 -188 325 -319 453 l-56 54 0 356 c0 264 -3 359 -12 368 -22
22 -52 12 -95 -30 l-43 -42 0 40 c0 42 -14 64 -39 64 -9 0 -107 -91 -218 -202
l-201 -201 -74 12 c-186 29 -884 69 -1018 58 l-65 -5 -18 71 c-17 69 -42 107
-71 107 -6 0 -112 -27 -236 -60 -123 -33 -227 -56 -230 -52 -3 5 -33 45 -67
89 -35 45 -63 85 -63 89 0 4 47 4 105 0 102 -6 106 -6 129 17 26 26 30 48 41
224 6 88 5 94 -17 116 -20 20 -39 25 -109 32 -46 4 -79 10 -74 12 6 2 71 26
145 51 178 62 176 58 120 226 -41 123 -44 128 -101 152 -3 2 -122 -36 -265
-83z m2306 -733 c0 -33 3 -60 7 -60 4 0 33 25 64 56 32 31 62 53 68 50 8 -5
11 -115 11 -364 l0 -357 80 -83 c191 -196 328 -433 399 -685 50 -177 54 -225
31 -383 -25 -179 -25 -178 1 -164 11 7 23 10 25 8 6 -7 -16 -170 -34 -249
l-17 -74 -48 -3 c-46 -3 -47 -4 -47 -38 0 -32 2 -34 35 -34 19 0 35 -2 35 -5
0 -18 -59 -155 -106 -245 -140 -270 -391 -524 -657 -665 l-87 -47 0 -197 c0
-192 -1 -198 -26 -249 -48 -97 -157 -148 -264 -122 -42 10 -65 24 -106 64 -65
63 -74 94 -74 249 l0 117 -37 -5 c-144 -18 -832 -10 -985 11 l-46 6 -4 -139
c-3 -135 -4 -141 -33 -189 -99 -160 -333 -148 -411 21 -23 47 -24 61 -24 265
l0 215 -65 38 c-109 63 -216 150 -326 264 -170 176 -294 382 -369 613 -61 185
-75 285 -74 510 1 214 16 316 75 495 38 117 142 326 183 369 33 36 83 56 95
39 18 -29 49 -32 142 -17 52 8 324 51 604 95 281 43 523 82 538 85 15 3 35 17
44 30 14 21 14 34 3 107 -7 45 -16 92 -21 104 -17 46 -34 46 -284 7 -129 -21
-236 -35 -238 -33 -1 2 -26 50 -55 107 l-54 102 39 16 c61 26 250 71 348 83
50 6 151 11 225 11 276 0 804 -34 943 -62 l59 -11 201 202 c111 110 210 201
219 201 15 0 18 -9 18 -60z m911 -1988 c37 -41 45 -75 30 -131 -15 -57 -55
-109 -107 -138 -34 -20 -172 -59 -179 -51 -2 2 5 41 16 88 10 47 22 120 25
162 9 100 19 109 128 104 52 -2 62 -6 87 -34z m-2048 -1517 l407 0 0 -95 c1
-158 28 -229 112 -290 l41 -30 -679 0 c-673 1 -679 1 -643 20 44 23 96 81 117
129 10 23 17 79 20 158 l4 123 107 -8 c58 -4 289 -7 514 -7z"/>
<path d="M4575 4379 c-314 -17 -410 -66 -213 -109 99 -21 430 -32 631 -20 245
14 347 33 347 65 0 32 -106 52 -341 65 -191 11 -219 11 -424 -1z m477 -20
c163 -11 263 -28 263 -44 0 -17 -115 -34 -317 -47 -284 -17 -707 11 -710 47
-4 40 447 66 764 44z"/>
<path d="M5882 3438 l3 -33 183 -3 182 -2 0 35 0 35 -186 0 -185 0 3 -32z"/>
</g>
</svg>
